{
	"asset":{
		"generator":"Khronos glTF Blender I/O v4.0.44",
		"version":"2.0"
	},
	"scene":0,
	"scenes":[
		{
			"name":"Scene",
			"nodes":[
				0,
				5
			]
		}
	],
	"nodes":[
		{
			"mesh":0,
			"name":"Base",
			"translation":[
				0,
				1,
				-1
			]
		},
		{
			"mesh":1,
			"name":"Arrow",
			"rotation":[
				0.5,
				-0.5,
				-0.5,
				0.5
			],
			"scale":[
				0.22016531229019165,
				0.22016531229019165,
				0.22016531229019165
			],
			"translation":[
				0,
				-0.9829796552658081,
				4.427340507507324
			]
		},
		{
			"mesh":2,
			"name":"Arrow.001",
			"rotation":[
				0.5,
				-0.5,
				-0.5,
				0.5
			],
			"scale":[
				0.22016531229019165,
				0.22016531229019165,
				0.22016531229019165
			],
			"translation":[
				0,
				-0.9829796552658081,
				3.830197811126709
			]
		},
		{
			"mesh":3,
			"name":"Arrow.002",
			"rotation":[
				0.5,
				-0.5,
				-0.5,
				0.5
			],
			"scale":[
				0.22016531229019165,
				0.22016531229019165,
				0.22016531229019165
			],
			"translation":[
				0,
				-0.23769104480743408,
				4.474123954772949
			]
		},
		{
			"mesh":4,
			"name":"Arrow.003",
			"rotation":[
				0.5,
				-0.5,
				-0.5,
				0.5
			],
			"scale":[
				0.22016531229019165,
				0.22016531229019165,
				0.22016531229019165
			],
			"translation":[
				0,
				-0.25661665201187134,
				5.637610912322998
			]
		},
		{
			"children":[
				1,
				2,
				3,
				4
			],
			"name":"Empty",
			"translation":[
				0,
				0.9829796552658081,
				-2.587803840637207
			]
		}
	],
	"animations":[
		{
			"channels":[
				{
					"sampler":0,
					"target":{
						"node":5,
						"path":"translation"
					}
				}
			],
			"name":"EmptyAction",
			"samplers":[
				{
					"input":21,
					"interpolation":"CUBICSPLINE",
					"output":22
				}
			]
		}
	],
	"materials":[
		{
			"doubleSided":true,
			"name":"Material.001",
			"pbrMetallicRoughness":{
				"baseColorFactor":[
					0.21029092371463776,
					0.08556686341762543,
					0.007808468770235777,
					1
				],
				"metallicFactor":0,
				"roughnessFactor":0.7298387289047241
			}
		},
		{
			"doubleSided":true,
			"name":"Material.007",
			"pbrMetallicRoughness":{
				"baseColorFactor":[
					0,
					0,
					0,
					1
				],
				"metallicFactor":0.6733871102333069,
				"roughnessFactor":0.5
			}
		},
		{
			"doubleSided":true,
			"name":"Material.002",
			"pbrMetallicRoughness":{
				"baseColorFactor":[
					0.21029092371463776,
					0.08556686341762543,
					0.007808468770235777,
					1
				],
				"metallicFactor":0,
				"roughnessFactor":0.7298387289047241
			}
		},
		{
			"doubleSided":true,
			"name":"Material.005",
			"pbrMetallicRoughness":{
				"baseColorFactor":[
					0.21029092371463776,
					0.08556686341762543,
					0.007808468770235777,
					1
				],
				"metallicFactor":0,
				"roughnessFactor":0.7298387289047241
			}
		},
		{
			"doubleSided":true,
			"name":"Material.006",
			"pbrMetallicRoughness":{
				"baseColorFactor":[
					0.21029092371463776,
					0.08556686341762543,
					0.007808468770235777,
					1
				],
				"metallicFactor":0,
				"roughnessFactor":0.7298387289047241
			}
		}
	],
	"meshes":[
		{
			"name":"Cube.001",
			"primitives":[
				{
					"attributes":{
						"POSITION":0,
						"NORMAL":1,
						"TEXCOORD_0":2
					},
					"indices":3,
					"material":0
				},
				{
					"attributes":{
						"POSITION":4,
						"NORMAL":5,
						"TEXCOORD_0":6
					},
					"indices":7,
					"material":1
				}
			]
		},
		{
			"name":"Cylinder",
			"primitives":[
				{
					"attributes":{
						"POSITION":8,
						"NORMAL":9,
						"TEXCOORD_0":10
					},
					"indices":11,
					"material":0
				}
			]
		},
		{
			"name":"Cylinder.001",
			"primitives":[
				{
					"attributes":{
						"POSITION":12,
						"NORMAL":13,
						"TEXCOORD_0":14
					},
					"indices":11,
					"material":2
				}
			]
		},
		{
			"name":"Cylinder.004",
			"primitives":[
				{
					"attributes":{
						"POSITION":15,
						"NORMAL":16,
						"TEXCOORD_0":17
					},
					"indices":11,
					"material":3
				}
			]
		},
		{
			"name":"Cylinder.005",
			"primitives":[
				{
					"attributes":{
						"POSITION":18,
						"NORMAL":19,
						"TEXCOORD_0":20
					},
					"indices":11,
					"material":4
				}
			]
		}
	],
	"accessors":[
		{
			"bufferView":0,
			"componentType":5126,
			"count":345,
			"max":[
				1,
				1,
				1
			],
			"min":[
				-1,
				-1,
				-1.9867963790893555
			],
			"type":"VEC3"
		},
		{
			"bufferView":1,
			"componentType":5126,
			"count":345,
			"type":"VEC3"
		},
		{
			"bufferView":2,
			"componentType":5126,
			"count":345,
			"type":"VEC2"
		},
		{
			"bufferView":3,
			"componentType":5123,
			"count":864,
			"type":"SCALAR"
		},
		{
			"bufferView":4,
			"componentType":5126,
			"count":164,
			"max":[
				0.5835034251213074,
				0.5835034251213074,
				0.8950996398925781
			],
			"min":[
				-0.5835034251213074,
				-0.5835034251213074,
				0.7435076832771301
			],
			"type":"VEC3"
		},
		{
			"bufferView":5,
			"componentType":5126,
			"count":164,
			"type":"VEC3"
		},
		{
			"bufferView":6,
			"componentType":5126,
			"count":164,
			"type":"VEC2"
		},
		{
			"bufferView":7,
			"componentType":5123,
			"count":288,
			"type":"SCALAR"
		},
		{
			"bufferView":8,
			"componentType":5126,
			"count":576,
			"max":[
				-2.435638189315796,
				-11.513164520263672,
				-1.2009692192077637
			],
			"min":[
				-3.247593879699707,
				-17.006057739257812,
				-2.012925148010254
			],
			"type":"VEC3"
		},
		{
			"bufferView":9,
			"componentType":5126,
			"count":576,
			"type":"VEC3"
		},
		{
			"bufferView":10,
			"componentType":5126,
			"count":576,
			"type":"VEC2"
		},
		{
			"bufferView":11,
			"componentType":5123,
			"count":948,
			"type":"SCALAR"
		},
		{
			"bufferView":12,
			"componentType":5126,
			"count":576,
			"max":[
				-2.435637950897217,
				-11.513164520263672,
				2.0821878910064697
			],
			"min":[
				-3.247593641281128,
				-17.006057739257812,
				1.270232081413269
			],
			"type":"VEC3"
		},
		{
			"bufferView":13,
			"componentType":5126,
			"count":576,
			"type":"VEC3"
		},
		{
			"bufferView":14,
			"componentType":5126,
			"count":576,
			"type":"VEC2"
		},
		{
			"bufferView":15,
			"componentType":5126,
			"count":576,
			"max":[
				-2.435637950897217,
				-11.513164520263672,
				2.0821878910064697
			],
			"min":[
				-3.247593641281128,
				-17.006057739257812,
				1.270232081413269
			],
			"type":"VEC3"
		},
		{
			"bufferView":16,
			"componentType":5126,
			"count":576,
			"type":"VEC3"
		},
		{
			"bufferView":17,
			"componentType":5126,
			"count":576,
			"type":"VEC2"
		},
		{
			"bufferView":18,
			"componentType":5126,
			"count":576,
			"max":[
				-2.435638189315796,
				-11.513164520263672,
				-1.2009692192077637
			],
			"min":[
				-3.247593879699707,
				-17.006057739257812,
				-2.012925148010254
			],
			"type":"VEC3"
		},
		{
			"bufferView":19,
			"componentType":5126,
			"count":576,
			"type":"VEC3"
		},
		{
			"bufferView":20,
			"componentType":5126,
			"count":576,
			"type":"VEC2"
		},
		{
			"bufferView":21,
			"componentType":5126,
			"count":3,
			"max":[
				1.6666666666666667
			],
			"min":[
				0
			],
			"type":"SCALAR"
		},
		{
			"bufferView":22,
			"componentType":5126,
			"count":9,
			"type":"VEC3"
		}
	],
	"bufferViews":[
		{
			"buffer":0,
			"byteLength":4140,
			"byteOffset":0,
			"target":34962
		},
		{
			"buffer":0,
			"byteLength":4140,
			"byteOffset":4140,
			"target":34962
		},
		{
			"buffer":0,
			"byteLength":2760,
			"byteOffset":8280,
			"target":34962
		},
		{
			"buffer":0,
			"byteLength":1728,
			"byteOffset":11040,
			"target":34963
		},
		{
			"buffer":0,
			"byteLength":1968,
			"byteOffset":12768,
			"target":34962
		},
		{
			"buffer":0,
			"byteLength":1968,
			"byteOffset":14736,
			"target":34962
		},
		{
			"buffer":0,
			"byteLength":1312,
			"byteOffset":16704,
			"target":34962
		},
		{
			"buffer":0,
			"byteLength":576,
			"byteOffset":18016,
			"target":34963
		},
		{
			"buffer":0,
			"byteLength":6912,
			"byteOffset":18592,
			"target":34962
		},
		{
			"buffer":0,
			"byteLength":6912,
			"byteOffset":25504,
			"target":34962
		},
		{
			"buffer":0,
			"byteLength":4608,
			"byteOffset":32416,
			"target":34962
		},
		{
			"buffer":0,
			"byteLength":1896,
			"byteOffset":37024,
			"target":34963
		},
		{
			"buffer":0,
			"byteLength":6912,
			"byteOffset":38920,
			"target":34962
		},
		{
			"buffer":0,
			"byteLength":6912,
			"byteOffset":45832,
			"target":34962
		},
		{
			"buffer":0,
			"byteLength":4608,
			"byteOffset":52744,
			"target":34962
		},
		{
			"buffer":0,
			"byteLength":6912,
			"byteOffset":57352,
			"target":34962
		},
		{
			"buffer":0,
			"byteLength":6912,
			"byteOffset":64264,
			"target":34962
		},
		{
			"buffer":0,
			"byteLength":4608,
			"byteOffset":71176,
			"target":34962
		},
		{
			"buffer":0,
			"byteLength":6912,
			"byteOffset":75784,
			"target":34962
		},
		{
			"buffer":0,
			"byteLength":6912,
			"byteOffset":82696,
			"target":34962
		},
		{
			"buffer":0,
			"byteLength":4608,
			"byteOffset":89608,
			"target":34962
		},
		{
			"buffer":0,
			"byteLength":12,
			"byteOffset":94216
		},
		{
			"buffer":0,
			"byteLength":108,
			"byteOffset":94228
		}
	],
	"buffers":[
		{
			"byteLength":94336,
			"uri":"Arrow.bin"
		}
	]
}
