{
	"asset":{
		"generator":"Khronos glTF Blender I/O v4.0.44",
		"version":"2.0"
	},
	"extensionsUsed":[
		"KHR_materials_clearcoat"
	],
	"scene":0,
	"scenes":[
		{
			"name":"Scene",
			"nodes":[
				0,
				3
			]
		}
	],
	"nodes":[
		{
			"mesh":0,
			"name":"Cube",
			"translation":[
				0,
				1,
				0
			]
		},
		{
			"mesh":1,
			"name":"Cube.001",
			"translation":[
				0,
				1.2286641597747803,
				0
			]
		},
		{
			"mesh":2,
			"name":"Spring.001",
			"scale":[
				20.21648597717285,
				20.21648597717285,
				20.21648597717285
			],
			"translation":[
				-0.026233434677124023,
				-0.9201310873031616,
				0
			]
		},
		{
			"children":[
				1,
				2
			],
			"name":"Empty",
			"translation":[
				0,
				0.7597649097442627,
				0
			]
		}
	],
	"animations":[
		{
			"channels":[
				{
					"sampler":0,
					"target":{
						"node":0,
						"path":"translation"
					}
				}
			],
			"name":"CubeAction.001",
			"samplers":[
				{
					"input":22,
					"interpolation":"LINEAR",
					"output":23
				}
			]
		},
		{
			"channels":[
				{
					"sampler":0,
					"target":{
						"node":3,
						"path":"translation"
					}
				}
			],
			"name":"EmptyAction",
			"samplers":[
				{
					"input":24,
					"interpolation":"LINEAR",
					"output":25
				}
			]
		},
		{
			"channels":[
				{
					"sampler":0,
					"target":{
						"node":1,
						"path":"translation"
					}
				},
				{
					"sampler":1,
					"target":{
						"node":1,
						"path":"rotation"
					}
				},
				{
					"sampler":2,
					"target":{
						"node":1,
						"path":"scale"
					}
				}
			],
			"name":"Cube.001Action",
			"samplers":[
				{
					"input":26,
					"interpolation":"STEP",
					"output":27
				},
				{
					"input":28,
					"interpolation":"LINEAR",
					"output":29
				},
				{
					"input":26,
					"interpolation":"STEP",
					"output":30
				}
			]
		},
		{
			"channels":[
				{
					"sampler":0,
					"target":{
						"node":2,
						"path":"translation"
					}
				}
			],
			"name":"Spring.001Action",
			"samplers":[
				{
					"input":22,
					"interpolation":"LINEAR",
					"output":31
				}
			]
		}
	],
	"materials":[
		{
			"doubleSided":true,
			"name":"Material",
			"pbrMetallicRoughness":{
				"baseColorFactor":[
					0.13747267425060272,
					0.03485462814569473,
					0.002436690265312791,
					1
				],
				"metallicFactor":0,
				"roughnessFactor":0.5
			}
		},
		{
			"doubleSided":true,
			"name":"RedCarpet",
			"pbrMetallicRoughness":{
				"baseColorFactor":[
					0.8002276420593262,
					0,
					0.0018965061753988266,
					1
				],
				"metallicFactor":0,
				"roughnessFactor":0.5
			}
		},
		{
			"doubleSided":true,
			"name":"RedContour",
			"pbrMetallicRoughness":{
				"baseColorFactor":[
					0.14735908806324005,
					0.007150469347834587,
					0.007570953108370304,
					1
				],
				"metallicFactor":0,
				"roughnessFactor":0.5
			}
		},
		{
			"doubleSided":true,
			"extensions":{
				"KHR_materials_clearcoat":{
					"clearcoatFactor":0.10000000149011612,
					"clearcoatRoughnessFactor":0.2072727233171463
				}
			},
			"name":"Spring.Metal",
			"pbrMetallicRoughness":{
				"baseColorFactor":[
					0.19676047563552856,
					0.19676047563552856,
					0.19676047563552856,
					1
				]
			}
		}
	],
	"meshes":[
		{
			"name":"Cube.002",
			"primitives":[
				{
					"attributes":{
						"POSITION":0,
						"NORMAL":1,
						"TEXCOORD_0":2
					},
					"indices":3,
					"material":0
				}
			]
		},
		{
			"name":"Cube.003",
			"primitives":[
				{
					"attributes":{
						"POSITION":4,
						"NORMAL":5,
						"TEXCOORD_0":6
					},
					"indices":7,
					"material":1
				},
				{
					"attributes":{
						"POSITION":8,
						"NORMAL":9,
						"TEXCOORD_0":10
					},
					"indices":11,
					"material":0
				},
				{
					"attributes":{
						"POSITION":12,
						"NORMAL":13,
						"TEXCOORD_0":14
					},
					"indices":15,
					"material":2
				}
			]
		},
		{
			"extras":{
				"targetNames":[
					"Thickness"
				]
			},
			"name":"Spiral.001",
			"primitives":[
				{
					"attributes":{
						"POSITION":16,
						"NORMAL":17,
						"TEXCOORD_0":18
					},
					"indices":19,
					"material":3,
					"targets":[
						{
							"POSITION":20,
							"NORMAL":21
						}
					]
				}
			],
			"weights":[
				0
			]
		}
	],
	"accessors":[
		{
			"bufferView":0,
			"componentType":5126,
			"count":24,
			"max":[
				1,
				-0.05350580811500549,
				1
			],
			"min":[
				-1,
				-1,
				-1
			],
			"type":"VEC3"
		},
		{
			"bufferView":1,
			"componentType":5126,
			"count":24,
			"type":"VEC3"
		},
		{
			"bufferView":2,
			"componentType":5126,
			"count":24,
			"type":"VEC2"
		},
		{
			"bufferView":3,
			"componentType":5123,
			"count":36,
			"type":"SCALAR"
		},
		{
			"bufferView":4,
			"componentType":5126,
			"count":8,
			"max":[
				1,
				-0.05350580811500549,
				1
			],
			"min":[
				-1,
				-1,
				-1
			],
			"type":"VEC3"
		},
		{
			"bufferView":5,
			"componentType":5126,
			"count":8,
			"type":"VEC3"
		},
		{
			"bufferView":6,
			"componentType":5126,
			"count":8,
			"type":"VEC2"
		},
		{
			"bufferView":7,
			"componentType":5123,
			"count":12,
			"type":"SCALAR"
		},
		{
			"bufferView":8,
			"componentType":5126,
			"count":16,
			"max":[
				1,
				-0.5267528891563416,
				1
			],
			"min":[
				-1,
				-1,
				-1
			],
			"type":"VEC3"
		},
		{
			"bufferView":9,
			"componentType":5126,
			"count":16,
			"type":"VEC3"
		},
		{
			"bufferView":10,
			"componentType":5126,
			"count":16,
			"type":"VEC2"
		},
		{
			"bufferView":11,
			"componentType":5123,
			"count":24,
			"type":"SCALAR"
		},
		{
			"bufferView":12,
			"componentType":5126,
			"count":24,
			"max":[
				1,
				-0.05350580811500549,
				1
			],
			"min":[
				-1,
				-0.5267529487609863,
				-1
			],
			"type":"VEC3"
		},
		{
			"bufferView":13,
			"componentType":5126,
			"count":24,
			"type":"VEC3"
		},
		{
			"bufferView":14,
			"componentType":5126,
			"count":24,
			"type":"VEC2"
		},
		{
			"bufferView":15,
			"componentType":5123,
			"count":48,
			"type":"SCALAR"
		},
		{
			"bufferView":16,
			"componentType":5126,
			"count":5094,
			"max":[
				0.011359989643096924,
				0.0854671522974968,
				0.01135963387787342
			],
			"min":[
				-0.011359546333551407,
				0.003482561558485031,
				-0.011359982192516327
			],
			"type":"VEC3"
		},
		{
			"bufferView":17,
			"componentType":5126,
			"count":5094,
			"type":"VEC3"
		},
		{
			"bufferView":18,
			"componentType":5126,
			"count":5094,
			"type":"VEC2"
		},
		{
			"bufferView":19,
			"componentType":5123,
			"count":28068,
			"type":"SCALAR"
		},
		{
			"bufferView":20,
			"componentType":5126,
			"count":5094,
			"max":[
				0.0008470006287097931,
				0.0008470006287097931,
				0.0008469969034194946
			],
			"min":[
				-0.0008470006287097931,
				-0.0008470010943710804,
				-0.0008469969034194946
			],
			"type":"VEC3"
		},
		{
			"bufferView":21,
			"componentType":5126,
			"count":5094,
			"type":"VEC3"
		},
		{
			"bufferView":22,
			"componentType":5126,
			"count":1,
			"max":[
				0.041666666666666664
			],
			"min":[
				0.041666666666666664
			],
			"type":"SCALAR"
		},
		{
			"bufferView":23,
			"componentType":5126,
			"count":1,
			"type":"VEC3"
		},
		{
			"bufferView":24,
			"componentType":5126,
			"count":5,
			"max":[
				0.20833333333333334
			],
			"min":[
				0.041666666666666664
			],
			"type":"SCALAR"
		},
		{
			"bufferView":25,
			"componentType":5126,
			"count":5,
			"type":"VEC3"
		},
		{
			"bufferView":26,
			"componentType":5126,
			"count":2,
			"max":[
				0.875
			],
			"min":[
				0.20833333333333334
			],
			"type":"SCALAR"
		},
		{
			"bufferView":27,
			"componentType":5126,
			"count":2,
			"type":"VEC3"
		},
		{
			"bufferView":28,
			"componentType":5126,
			"count":17,
			"max":[
				0.875
			],
			"min":[
				0.20833333333333334
			],
			"type":"SCALAR"
		},
		{
			"bufferView":29,
			"componentType":5126,
			"count":17,
			"type":"VEC4"
		},
		{
			"bufferView":30,
			"componentType":5126,
			"count":2,
			"type":"VEC3"
		},
		{
			"bufferView":31,
			"componentType":5126,
			"count":1,
			"type":"VEC3"
		}
	],
	"bufferViews":[
		{
			"buffer":0,
			"byteLength":288,
			"byteOffset":0,
			"target":34962
		},
		{
			"buffer":0,
			"byteLength":288,
			"byteOffset":288,
			"target":34962
		},
		{
			"buffer":0,
			"byteLength":192,
			"byteOffset":576,
			"target":34962
		},
		{
			"buffer":0,
			"byteLength":72,
			"byteOffset":768,
			"target":34963
		},
		{
			"buffer":0,
			"byteLength":96,
			"byteOffset":840,
			"target":34962
		},
		{
			"buffer":0,
			"byteLength":96,
			"byteOffset":936,
			"target":34962
		},
		{
			"buffer":0,
			"byteLength":64,
			"byteOffset":1032,
			"target":34962
		},
		{
			"buffer":0,
			"byteLength":24,
			"byteOffset":1096,
			"target":34963
		},
		{
			"buffer":0,
			"byteLength":192,
			"byteOffset":1120,
			"target":34962
		},
		{
			"buffer":0,
			"byteLength":192,
			"byteOffset":1312,
			"target":34962
		},
		{
			"buffer":0,
			"byteLength":128,
			"byteOffset":1504,
			"target":34962
		},
		{
			"buffer":0,
			"byteLength":48,
			"byteOffset":1632,
			"target":34963
		},
		{
			"buffer":0,
			"byteLength":288,
			"byteOffset":1680,
			"target":34962
		},
		{
			"buffer":0,
			"byteLength":288,
			"byteOffset":1968,
			"target":34962
		},
		{
			"buffer":0,
			"byteLength":192,
			"byteOffset":2256,
			"target":34962
		},
		{
			"buffer":0,
			"byteLength":96,
			"byteOffset":2448,
			"target":34963
		},
		{
			"buffer":0,
			"byteLength":61128,
			"byteOffset":2544,
			"target":34962
		},
		{
			"buffer":0,
			"byteLength":61128,
			"byteOffset":63672,
			"target":34962
		},
		{
			"buffer":0,
			"byteLength":40752,
			"byteOffset":124800,
			"target":34962
		},
		{
			"buffer":0,
			"byteLength":56136,
			"byteOffset":165552,
			"target":34963
		},
		{
			"buffer":0,
			"byteLength":61128,
			"byteOffset":221688,
			"target":34962
		},
		{
			"buffer":0,
			"byteLength":61128,
			"byteOffset":282816,
			"target":34962
		},
		{
			"buffer":0,
			"byteLength":4,
			"byteOffset":343944
		},
		{
			"buffer":0,
			"byteLength":12,
			"byteOffset":343948
		},
		{
			"buffer":0,
			"byteLength":20,
			"byteOffset":343960
		},
		{
			"buffer":0,
			"byteLength":60,
			"byteOffset":343980
		},
		{
			"buffer":0,
			"byteLength":8,
			"byteOffset":344040
		},
		{
			"buffer":0,
			"byteLength":24,
			"byteOffset":344048
		},
		{
			"buffer":0,
			"byteLength":68,
			"byteOffset":344072
		},
		{
			"buffer":0,
			"byteLength":272,
			"byteOffset":344140
		},
		{
			"buffer":0,
			"byteLength":24,
			"byteOffset":344412
		},
		{
			"buffer":0,
			"byteLength":12,
			"byteOffset":344436
		}
	],
	"buffers":[
		{
			"byteLength":344448,
			"uri":"bump.bin"
		}
	]
}
