{
	"asset":{
		"generator":"Khronos glTF Blender I/O v4.0.44",
		"version":"2.0"
	},
	"scene":0,
	"scenes":[
		{
			"name":"Scene",
			"nodes":[
				0,
				1,
				2,
				3
			]
		}
	],
	"nodes":[
		{
			"mesh":0,
			"name":"Cylinder"
		},
		{
			"mesh":1,
			"name":"Lines",
			"scale":[
				1.0697476863861084,
				1.0697476863861084,
				1.0697476863861084
			]
		},
		{
			"name":"Stroke.001",
			"translation":[
				0.9224401712417603,
				-2.03482723236084,
				-1.6997398138046265
			]
		},
		{
			"mesh":2,
			"name":"Lines.001",
			"scale":[
				1.0697476863861084,
				1.0697476863861084,
				1.0697476863861084
			]
		}
	],
	"animations":[
		{
			"channels":[
				{
					"sampler":0,
					"target":{
						"node":1,
						"path":"translation"
					}
				}
			],
			"name":"LinesAction",
			"samplers":[
				{
					"input":12,
					"interpolation":"LINEAR",
					"output":13
				}
			]
		},
		{
			"channels":[
				{
					"sampler":0,
					"target":{
						"node":3,
						"path":"translation"
					}
				}
			],
			"name":"Lines.001Action",
			"samplers":[
				{
					"input":12,
					"interpolation":"LINEAR",
					"output":14
				}
			]
		}
	],
	"materials":[
		{
			"doubleSided":true,
			"name":"Material.001",
			"pbrMetallicRoughness":{
				"baseColorFactor":[
					0.035876527428627014,
					0.03189276158809662,
					0.031400032341480255,
					1
				],
				"metallicFactor":0,
				"roughnessFactor":0.5
			}
		},
		{
			"doubleSided":true,
			"name":"Material",
			"pbrMetallicRoughness":{
				"baseColorFactor":[
					0.8003387451171875,
					0.7703232765197754,
					0,
					1
				],
				"metallicFactor":0,
				"roughnessFactor":0.5
			}
		}
	],
	"meshes":[
		{
			"name":"Cylinder",
			"primitives":[
				{
					"attributes":{
						"POSITION":0,
						"NORMAL":1,
						"TEXCOORD_0":2
					},
					"indices":3,
					"material":0
				}
			]
		},
		{
			"name":"Lines",
			"primitives":[
				{
					"attributes":{
						"POSITION":4,
						"NORMAL":5,
						"TEXCOORD_0":6
					},
					"indices":7,
					"material":1
				}
			]
		},
		{
			"name":"Lines.001",
			"primitives":[
				{
					"attributes":{
						"POSITION":8,
						"NORMAL":9,
						"TEXCOORD_0":10
					},
					"indices":11,
					"material":1
				}
			]
		}
	],
	"accessors":[
		{
			"bufferView":0,
			"componentType":5126,
			"count":3816,
			"max":[
				1.2137314081192017,
				10.640087127685547,
				7.2322678565979
			],
			"min":[
				-1.213730812072754,
				0,
				-7.195195198059082
			],
			"type":"VEC3"
		},
		{
			"bufferView":1,
			"componentType":5126,
			"count":3816,
			"type":"VEC3"
		},
		{
			"bufferView":2,
			"componentType":5126,
			"count":3816,
			"type":"VEC2"
		},
		{
			"bufferView":3,
			"componentType":5123,
			"count":5706,
			"type":"SCALAR"
		},
		{
			"bufferView":4,
			"componentType":5126,
			"count":159884,
			"max":[
				1.201255202293396,
				4.303415775299072,
				5.525440216064453
			],
			"min":[
				-0.7186192274093628,
				1.4671772718429565,
				-7.010129928588867
			],
			"type":"VEC3"
		},
		{
			"bufferView":5,
			"componentType":5126,
			"count":159884,
			"type":"VEC3"
		},
		{
			"bufferView":6,
			"componentType":5126,
			"count":159884,
			"type":"VEC2"
		},
		{
			"bufferView":7,
			"componentType":5125,
			"count":239904,
			"type":"SCALAR"
		},
		{
			"bufferView":8,
			"componentType":5126,
			"count":159904,
			"max":[
				0.3259037733078003,
				7.406341075897217,
				6.398643970489502
			],
			"min":[
				-0.11803682893514633,
				5.7206711769104,
				-5.706554412841797
			],
			"type":"VEC3"
		},
		{
			"bufferView":9,
			"componentType":5126,
			"count":159904,
			"type":"VEC3"
		},
		{
			"bufferView":10,
			"componentType":5126,
			"count":159904,
			"type":"VEC2"
		},
		{
			"bufferView":11,
			"componentType":5125,
			"count":239904,
			"type":"SCALAR"
		},
		{
			"bufferView":12,
			"componentType":5126,
			"count":41,
			"max":[
				1.6666666666666667
			],
			"min":[
				0
			],
			"type":"SCALAR"
		},
		{
			"bufferView":13,
			"componentType":5126,
			"count":41,
			"type":"VEC3"
		},
		{
			"bufferView":14,
			"componentType":5126,
			"count":41,
			"type":"VEC3"
		}
	],
	"bufferViews":[
		{
			"buffer":0,
			"byteLength":45792,
			"byteOffset":0,
			"target":34962
		},
		{
			"buffer":0,
			"byteLength":45792,
			"byteOffset":45792,
			"target":34962
		},
		{
			"buffer":0,
			"byteLength":30528,
			"byteOffset":91584,
			"target":34962
		},
		{
			"buffer":0,
			"byteLength":11412,
			"byteOffset":122112,
			"target":34963
		},
		{
			"buffer":0,
			"byteLength":1918608,
			"byteOffset":133524,
			"target":34962
		},
		{
			"buffer":0,
			"byteLength":1918608,
			"byteOffset":2052132,
			"target":34962
		},
		{
			"buffer":0,
			"byteLength":1279072,
			"byteOffset":3970740,
			"target":34962
		},
		{
			"buffer":0,
			"byteLength":959616,
			"byteOffset":5249812,
			"target":34963
		},
		{
			"buffer":0,
			"byteLength":1918848,
			"byteOffset":6209428,
			"target":34962
		},
		{
			"buffer":0,
			"byteLength":1918848,
			"byteOffset":8128276,
			"target":34962
		},
		{
			"buffer":0,
			"byteLength":1279232,
			"byteOffset":10047124,
			"target":34962
		},
		{
			"buffer":0,
			"byteLength":959616,
			"byteOffset":11326356,
			"target":34963
		},
		{
			"buffer":0,
			"byteLength":164,
			"byteOffset":12285972
		},
		{
			"buffer":0,
			"byteLength":492,
			"byteOffset":12286136
		},
		{
			"buffer":0,
			"byteLength":492,
			"byteOffset":12286628
		}
	],
	"buffers":[
		{
			"byteLength":12287120,
			"uri":"ecler.bin"
		}
	]
}
