{
	"asset":{
		"generator":"Khronos glTF Blender I/O v4.0.44",
		"version":"2.0"
	},
	"scene":0,
	"scenes":[
		{
			"name":"Scene",
			"nodes":[
				8
			]
		}
	],
	"nodes":[
		{
			"mesh":0,
			"name":"Sphere",
			"scale":[
				1.3458271026611328,
				1.3458271026611328,
				1.3458271026611328
			],
			"translation":[
				-1.2247804403305054,
				0.2713114023208618,
				0.4067058265209198
			]
		},
		{
			"mesh":1,
			"name":"Sphere.001",
			"scale":[
				1.3458271026611328,
				1.3458271026611328,
				1.3458271026611328
			],
			"translation":[
				-0.7031688094139099,
				0.5251368284225464,
				-0.8228759765625
			]
		},
		{
			"mesh":2,
			"name":"Sphere.002",
			"scale":[
				1.3458271026611328,
				1.3458271026611328,
				1.3458271026611328
			],
			"translation":[
				0.8717561960220337,
				-0.501773476600647,
				0.13843171298503876
			]
		},
		{
			"mesh":3,
			"name":"Sphere.003",
			"scale":[
				1.3458271026611328,
				1.3458271026611328,
				1.3458271026611328
			],
			"translation":[
				0.8717561960220337,
				0.9393326044082642,
				0.13843171298503876
			]
		},
		{
			"mesh":4,
			"name":"Sphere.004",
			"scale":[
				1.3458271026611328,
				1.3458271026611328,
				1.3458271026611328
			],
			"translation":[
				0.8717561960220337,
				-0.501773476600647,
				-1.3026742935180664
			]
		},
		{
			"mesh":5,
			"name":"Sphere.005",
			"scale":[
				1.3458271026611328,
				1.3458271026611328,
				1.3458271026611328
			],
			"translation":[
				0.2687305212020874,
				-0.501773476600647,
				1.2381904125213623
			]
		},
		{
			"mesh":6,
			"name":"Sphere.006",
			"scale":[
				1.3458271026611328,
				1.3458271026611328,
				1.3458271026611328
			],
			"translation":[
				0.2687305212020874,
				0.9393326044082642,
				1.2381904125213623
			]
		},
		{
			"mesh":7,
			"name":"Sphere.007",
			"scale":[
				1.3458271026611328,
				1.3458271026611328,
				1.3458271026611328
			],
			"translation":[
				-1.2247804403305054,
				-1.1697947978973389,
				-1.034400224685669
			]
		},
		{
			"children":[
				0,
				1,
				2,
				3,
				4,
				5,
				6,
				7
			],
			"name":"Empty",
			"translation":[
				0.8498891592025757,
				1.7217985391616821,
				-0.2822178304195404
			]
		}
	],
	"animations":[
		{
			"channels":[
				{
					"sampler":0,
					"target":{
						"node":8,
						"path":"scale"
					}
				}
			],
			"name":"EmptyAction",
			"samplers":[
				{
					"input":25,
					"interpolation":"LINEAR",
					"output":26
				}
			]
		},
		{
			"channels":[
				{
					"sampler":0,
					"target":{
						"node":0,
						"path":"scale"
					}
				}
			],
			"name":"SphereAction.001",
			"samplers":[
				{
					"input":27,
					"interpolation":"STEP",
					"output":28
				}
			]
		},
		{
			"channels":[
				{
					"sampler":0,
					"target":{
						"node":1,
						"path":"scale"
					}
				}
			],
			"name":"Sphere.001Action.001",
			"samplers":[
				{
					"input":27,
					"interpolation":"STEP",
					"output":29
				}
			]
		},
		{
			"channels":[
				{
					"sampler":0,
					"target":{
						"node":2,
						"path":"scale"
					}
				}
			],
			"name":"Sphere.002Action.001",
			"samplers":[
				{
					"input":27,
					"interpolation":"STEP",
					"output":30
				}
			]
		},
		{
			"channels":[
				{
					"sampler":0,
					"target":{
						"node":3,
						"path":"scale"
					}
				}
			],
			"name":"Sphere.003Action.001",
			"samplers":[
				{
					"input":27,
					"interpolation":"STEP",
					"output":31
				}
			]
		},
		{
			"channels":[
				{
					"sampler":0,
					"target":{
						"node":4,
						"path":"scale"
					}
				}
			],
			"name":"Sphere.004Action.001",
			"samplers":[
				{
					"input":27,
					"interpolation":"STEP",
					"output":32
				}
			]
		},
		{
			"channels":[
				{
					"sampler":0,
					"target":{
						"node":5,
						"path":"scale"
					}
				}
			],
			"name":"Sphere.005Action.001",
			"samplers":[
				{
					"input":27,
					"interpolation":"STEP",
					"output":33
				}
			]
		},
		{
			"channels":[
				{
					"sampler":0,
					"target":{
						"node":6,
						"path":"scale"
					}
				}
			],
			"name":"Sphere.006Action.001",
			"samplers":[
				{
					"input":27,
					"interpolation":"STEP",
					"output":34
				}
			]
		},
		{
			"channels":[
				{
					"sampler":0,
					"target":{
						"node":7,
						"path":"scale"
					}
				}
			],
			"name":"Sphere.007Action.001",
			"samplers":[
				{
					"input":27,
					"interpolation":"STEP",
					"output":35
				}
			]
		}
	],
	"materials":[
		{
			"doubleSided":true,
			"name":"Material.001",
			"pbrMetallicRoughness":{
				"baseColorFactor":[
					0.01611446402966976,
					0.8004740476608276,
					0.37416526675224304,
					0.15725800395011902
				],
				"metallicFactor":0,
				"roughnessFactor":0.5
			}
		}
	],
	"meshes":[
		{
			"name":"Sphere",
			"primitives":[
				{
					"attributes":{
						"POSITION":0,
						"NORMAL":1,
						"TEXCOORD_0":2
					},
					"indices":3,
					"material":0
				}
			]
		},
		{
			"name":"Sphere.001",
			"primitives":[
				{
					"attributes":{
						"POSITION":4,
						"NORMAL":5,
						"TEXCOORD_0":6
					},
					"indices":3,
					"material":0
				}
			]
		},
		{
			"name":"Sphere.002",
			"primitives":[
				{
					"attributes":{
						"POSITION":7,
						"NORMAL":8,
						"TEXCOORD_0":9
					},
					"indices":3,
					"material":0
				}
			]
		},
		{
			"name":"Sphere.003",
			"primitives":[
				{
					"attributes":{
						"POSITION":10,
						"NORMAL":11,
						"TEXCOORD_0":12
					},
					"indices":3,
					"material":0
				}
			]
		},
		{
			"name":"Sphere.004",
			"primitives":[
				{
					"attributes":{
						"POSITION":13,
						"NORMAL":14,
						"TEXCOORD_0":15
					},
					"indices":3,
					"material":0
				}
			]
		},
		{
			"name":"Sphere.005",
			"primitives":[
				{
					"attributes":{
						"POSITION":16,
						"NORMAL":17,
						"TEXCOORD_0":18
					},
					"indices":3,
					"material":0
				}
			]
		},
		{
			"name":"Sphere.006",
			"primitives":[
				{
					"attributes":{
						"POSITION":19,
						"NORMAL":20,
						"TEXCOORD_0":21
					},
					"indices":3,
					"material":0
				}
			]
		},
		{
			"name":"Sphere.007",
			"primitives":[
				{
					"attributes":{
						"POSITION":22,
						"NORMAL":23,
						"TEXCOORD_0":24
					},
					"indices":3,
					"material":0
				}
			]
		}
	],
	"accessors":[
		{
			"bufferView":0,
			"componentType":5126,
			"count":1984,
			"max":[
				0.9999997019767761,
				1,
				0.9999993443489075
			],
			"min":[
				-0.9999990463256836,
				-1,
				-1
			],
			"type":"VEC3"
		},
		{
			"bufferView":1,
			"componentType":5126,
			"count":1984,
			"type":"VEC3"
		},
		{
			"bufferView":2,
			"componentType":5126,
			"count":1984,
			"type":"VEC2"
		},
		{
			"bufferView":3,
			"componentType":5123,
			"count":2880,
			"type":"SCALAR"
		},
		{
			"bufferView":4,
			"componentType":5126,
			"count":1984,
			"max":[
				0.9999997019767761,
				1,
				0.9999993443489075
			],
			"min":[
				-0.9999990463256836,
				-1,
				-1
			],
			"type":"VEC3"
		},
		{
			"bufferView":5,
			"componentType":5126,
			"count":1984,
			"type":"VEC3"
		},
		{
			"bufferView":6,
			"componentType":5126,
			"count":1984,
			"type":"VEC2"
		},
		{
			"bufferView":7,
			"componentType":5126,
			"count":1984,
			"max":[
				0.9999997019767761,
				1,
				0.9999993443489075
			],
			"min":[
				-0.9999990463256836,
				-1,
				-1
			],
			"type":"VEC3"
		},
		{
			"bufferView":8,
			"componentType":5126,
			"count":1984,
			"type":"VEC3"
		},
		{
			"bufferView":9,
			"componentType":5126,
			"count":1984,
			"type":"VEC2"
		},
		{
			"bufferView":10,
			"componentType":5126,
			"count":1984,
			"max":[
				0.9999997019767761,
				1,
				0.9999993443489075
			],
			"min":[
				-0.9999990463256836,
				-1,
				-1
			],
			"type":"VEC3"
		},
		{
			"bufferView":11,
			"componentType":5126,
			"count":1984,
			"type":"VEC3"
		},
		{
			"bufferView":12,
			"componentType":5126,
			"count":1984,
			"type":"VEC2"
		},
		{
			"bufferView":13,
			"componentType":5126,
			"count":1984,
			"max":[
				0.9999997019767761,
				1,
				0.9999993443489075
			],
			"min":[
				-0.9999990463256836,
				-1,
				-1
			],
			"type":"VEC3"
		},
		{
			"bufferView":14,
			"componentType":5126,
			"count":1984,
			"type":"VEC3"
		},
		{
			"bufferView":15,
			"componentType":5126,
			"count":1984,
			"type":"VEC2"
		},
		{
			"bufferView":16,
			"componentType":5126,
			"count":1984,
			"max":[
				0.9999997019767761,
				1,
				0.9999993443489075
			],
			"min":[
				-0.9999990463256836,
				-1,
				-1
			],
			"type":"VEC3"
		},
		{
			"bufferView":17,
			"componentType":5126,
			"count":1984,
			"type":"VEC3"
		},
		{
			"bufferView":18,
			"componentType":5126,
			"count":1984,
			"type":"VEC2"
		},
		{
			"bufferView":19,
			"componentType":5126,
			"count":1984,
			"max":[
				0.9999997019767761,
				1,
				0.9999993443489075
			],
			"min":[
				-0.9999990463256836,
				-1,
				-1
			],
			"type":"VEC3"
		},
		{
			"bufferView":20,
			"componentType":5126,
			"count":1984,
			"type":"VEC3"
		},
		{
			"bufferView":21,
			"componentType":5126,
			"count":1984,
			"type":"VEC2"
		},
		{
			"bufferView":22,
			"componentType":5126,
			"count":1984,
			"max":[
				0.9999997019767761,
				1,
				0.9999993443489075
			],
			"min":[
				-0.9999990463256836,
				-1,
				-1
			],
			"type":"VEC3"
		},
		{
			"bufferView":23,
			"componentType":5126,
			"count":1984,
			"type":"VEC3"
		},
		{
			"bufferView":24,
			"componentType":5126,
			"count":1984,
			"type":"VEC2"
		},
		{
			"bufferView":25,
			"componentType":5126,
			"count":41,
			"max":[
				1.6666666666666667
			],
			"min":[
				0
			],
			"type":"SCALAR"
		},
		{
			"bufferView":26,
			"componentType":5126,
			"count":41,
			"type":"VEC3"
		},
		{
			"bufferView":27,
			"componentType":5126,
			"count":2,
			"max":[
				1.6666666666666667
			],
			"min":[
				0
			],
			"type":"SCALAR"
		},
		{
			"bufferView":28,
			"componentType":5126,
			"count":2,
			"type":"VEC3"
		},
		{
			"bufferView":29,
			"componentType":5126,
			"count":2,
			"type":"VEC3"
		},
		{
			"bufferView":30,
			"componentType":5126,
			"count":2,
			"type":"VEC3"
		},
		{
			"bufferView":31,
			"componentType":5126,
			"count":2,
			"type":"VEC3"
		},
		{
			"bufferView":32,
			"componentType":5126,
			"count":2,
			"type":"VEC3"
		},
		{
			"bufferView":33,
			"componentType":5126,
			"count":2,
			"type":"VEC3"
		},
		{
			"bufferView":34,
			"componentType":5126,
			"count":2,
			"type":"VEC3"
		},
		{
			"bufferView":35,
			"componentType":5126,
			"count":2,
			"type":"VEC3"
		}
	],
	"bufferViews":[
		{
			"buffer":0,
			"byteLength":23808,
			"byteOffset":0,
			"target":34962
		},
		{
			"buffer":0,
			"byteLength":23808,
			"byteOffset":23808,
			"target":34962
		},
		{
			"buffer":0,
			"byteLength":15872,
			"byteOffset":47616,
			"target":34962
		},
		{
			"buffer":0,
			"byteLength":5760,
			"byteOffset":63488,
			"target":34963
		},
		{
			"buffer":0,
			"byteLength":23808,
			"byteOffset":69248,
			"target":34962
		},
		{
			"buffer":0,
			"byteLength":23808,
			"byteOffset":93056,
			"target":34962
		},
		{
			"buffer":0,
			"byteLength":15872,
			"byteOffset":116864,
			"target":34962
		},
		{
			"buffer":0,
			"byteLength":23808,
			"byteOffset":132736,
			"target":34962
		},
		{
			"buffer":0,
			"byteLength":23808,
			"byteOffset":156544,
			"target":34962
		},
		{
			"buffer":0,
			"byteLength":15872,
			"byteOffset":180352,
			"target":34962
		},
		{
			"buffer":0,
			"byteLength":23808,
			"byteOffset":196224,
			"target":34962
		},
		{
			"buffer":0,
			"byteLength":23808,
			"byteOffset":220032,
			"target":34962
		},
		{
			"buffer":0,
			"byteLength":15872,
			"byteOffset":243840,
			"target":34962
		},
		{
			"buffer":0,
			"byteLength":23808,
			"byteOffset":259712,
			"target":34962
		},
		{
			"buffer":0,
			"byteLength":23808,
			"byteOffset":283520,
			"target":34962
		},
		{
			"buffer":0,
			"byteLength":15872,
			"byteOffset":307328,
			"target":34962
		},
		{
			"buffer":0,
			"byteLength":23808,
			"byteOffset":323200,
			"target":34962
		},
		{
			"buffer":0,
			"byteLength":23808,
			"byteOffset":347008,
			"target":34962
		},
		{
			"buffer":0,
			"byteLength":15872,
			"byteOffset":370816,
			"target":34962
		},
		{
			"buffer":0,
			"byteLength":23808,
			"byteOffset":386688,
			"target":34962
		},
		{
			"buffer":0,
			"byteLength":23808,
			"byteOffset":410496,
			"target":34962
		},
		{
			"buffer":0,
			"byteLength":15872,
			"byteOffset":434304,
			"target":34962
		},
		{
			"buffer":0,
			"byteLength":23808,
			"byteOffset":450176,
			"target":34962
		},
		{
			"buffer":0,
			"byteLength":23808,
			"byteOffset":473984,
			"target":34962
		},
		{
			"buffer":0,
			"byteLength":15872,
			"byteOffset":497792,
			"target":34962
		},
		{
			"buffer":0,
			"byteLength":164,
			"byteOffset":513664
		},
		{
			"buffer":0,
			"byteLength":492,
			"byteOffset":513828
		},
		{
			"buffer":0,
			"byteLength":8,
			"byteOffset":514320
		},
		{
			"buffer":0,
			"byteLength":24,
			"byteOffset":514328
		},
		{
			"buffer":0,
			"byteLength":24,
			"byteOffset":514352
		},
		{
			"buffer":0,
			"byteLength":24,
			"byteOffset":514376
		},
		{
			"buffer":0,
			"byteLength":24,
			"byteOffset":514400
		},
		{
			"buffer":0,
			"byteLength":24,
			"byteOffset":514424
		},
		{
			"buffer":0,
			"byteLength":24,
			"byteOffset":514448
		},
		{
			"buffer":0,
			"byteLength":24,
			"byteOffset":514472
		},
		{
			"buffer":0,
			"byteLength":24,
			"byteOffset":514496
		}
	],
	"buffers":[
		{
			"byteLength":514520,
			"uri":"gaz.bin"
		}
	]
}
