{
	"asset":{
		"generator":"Khronos glTF Blender I/O v4.0.44",
		"version":"2.0"
	},
	"scene":0,
	"scenes":[
		{
			"name":"Scene",
			"nodes":[
				0,
				10
			]
		}
	],
	"nodes":[
		{
			"mesh":0,
			"name":"Plane",
			"scale":[
				1.504337191581726,
				1.504337191581726,
				1.504337191581726
			]
		},
		{
			"mesh":1,
			"name":"Cone",
			"scale":[
				1.6805577278137207,
				1.6805577278137207,
				1.6805577278137207
			],
			"translation":[
				0,
				-1.724897027015686,
				0
			]
		},
		{
			"mesh":2,
			"name":"Cone.001",
			"scale":[
				1.6805577278137207,
				1.6805577278137207,
				1.6805577278137207
			],
			"translation":[
				-1.6805577278137207,
				-1.724897027015686,
				0
			]
		},
		{
			"mesh":3,
			"name":"Cone.002",
			"scale":[
				1.6805577278137207,
				1.6805577278137207,
				1.6805577278137207
			],
			"translation":[
				-1.6805577278137207,
				-1.724897027015686,
				1.6805577278137207
			]
		},
		{
			"mesh":4,
			"name":"Cone.003",
			"scale":[
				1.6805577278137207,
				1.6805577278137207,
				1.6805577278137207
			],
			"translation":[
				0,
				-1.724897027015686,
				1.6805577278137207
			]
		},
		{
			"mesh":5,
			"name":"Cone.004",
			"scale":[
				1.6805577278137207,
				1.6805577278137207,
				1.6805577278137207
			],
			"translation":[
				1.6805577278137207,
				-1.724897027015686,
				1.6805577278137207
			]
		},
		{
			"mesh":6,
			"name":"Cone.005",
			"scale":[
				1.6805577278137207,
				1.6805577278137207,
				1.6805577278137207
			],
			"translation":[
				1.6805577278137207,
				-1.724897027015686,
				0
			]
		},
		{
			"mesh":7,
			"name":"Cone.006",
			"scale":[
				1.6805577278137207,
				1.6805577278137207,
				1.6805577278137207
			],
			"translation":[
				1.6805577278137207,
				-1.724897027015686,
				-1.6805577278137207
			]
		},
		{
			"mesh":8,
			"name":"Cone.007",
			"scale":[
				1.6805577278137207,
				1.6805577278137207,
				1.6805577278137207
			],
			"translation":[
				0,
				-1.724897027015686,
				-1.6805577278137207
			]
		},
		{
			"mesh":9,
			"name":"Cone.008",
			"scale":[
				1.6805577278137207,
				1.6805577278137207,
				1.6805577278137207
			],
			"translation":[
				-1.6805577278137207,
				-1.724897027015686,
				-1.6805577278137207
			]
		},
		{
			"children":[
				1,
				2,
				3,
				4,
				5,
				6,
				7,
				8,
				9
			],
			"name":"Empty",
			"scale":[
				0.5950405597686768,
				0.5950405597686768,
				0.5950405597686768
			],
			"translation":[
				0,
				0.021606743335723877,
				0
			]
		}
	],
	"animations":[
		{
			"channels":[
				{
					"sampler":0,
					"target":{
						"node":10,
						"path":"translation"
					}
				}
			],
			"name":"EmptyAction",
			"samplers":[
				{
					"input":32,
					"interpolation":"LINEAR",
					"output":33
				}
			]
		}
	],
	"materials":[
		{
			"doubleSided":true,
			"name":"Material.001",
			"pbrMetallicRoughness":{
				"baseColorFactor":[
					0.1075504869222641,
					0.1075504869222641,
					0.1075504869222641,
					1
				],
				"roughnessFactor":0.5
			}
		}
	],
	"meshes":[
		{
			"name":"Plane",
			"primitives":[
				{
					"attributes":{
						"POSITION":0,
						"NORMAL":1,
						"TEXCOORD_0":2
					},
					"indices":3,
					"material":0
				}
			]
		},
		{
			"name":"Cone",
			"primitives":[
				{
					"attributes":{
						"POSITION":4,
						"NORMAL":5,
						"TEXCOORD_0":6
					},
					"indices":7,
					"material":0
				}
			]
		},
		{
			"name":"Cone.001",
			"primitives":[
				{
					"attributes":{
						"POSITION":8,
						"NORMAL":9,
						"TEXCOORD_0":10
					},
					"indices":7,
					"material":0
				}
			]
		},
		{
			"name":"Cone.002",
			"primitives":[
				{
					"attributes":{
						"POSITION":11,
						"NORMAL":12,
						"TEXCOORD_0":13
					},
					"indices":7,
					"material":0
				}
			]
		},
		{
			"name":"Cone.003",
			"primitives":[
				{
					"attributes":{
						"POSITION":14,
						"NORMAL":15,
						"TEXCOORD_0":16
					},
					"indices":7,
					"material":0
				}
			]
		},
		{
			"name":"Cone.004",
			"primitives":[
				{
					"attributes":{
						"POSITION":17,
						"NORMAL":18,
						"TEXCOORD_0":19
					},
					"indices":7,
					"material":0
				}
			]
		},
		{
			"name":"Cone.005",
			"primitives":[
				{
					"attributes":{
						"POSITION":20,
						"NORMAL":21,
						"TEXCOORD_0":22
					},
					"indices":7,
					"material":0
				}
			]
		},
		{
			"name":"Cone.006",
			"primitives":[
				{
					"attributes":{
						"POSITION":23,
						"NORMAL":24,
						"TEXCOORD_0":25
					},
					"indices":7,
					"material":0
				}
			]
		},
		{
			"name":"Cone.007",
			"primitives":[
				{
					"attributes":{
						"POSITION":26,
						"NORMAL":27,
						"TEXCOORD_0":28
					},
					"indices":7,
					"material":0
				}
			]
		},
		{
			"name":"Cone.008",
			"primitives":[
				{
					"attributes":{
						"POSITION":29,
						"NORMAL":30,
						"TEXCOORD_0":31
					},
					"indices":7,
					"material":0
				}
			]
		}
	],
	"accessors":[
		{
			"bufferView":0,
			"componentType":5126,
			"count":4,
			"max":[
				1,
				0,
				1
			],
			"min":[
				-1,
				0,
				-1
			],
			"type":"VEC3"
		},
		{
			"bufferView":1,
			"componentType":5126,
			"count":4,
			"type":"VEC3"
		},
		{
			"bufferView":2,
			"componentType":5126,
			"count":4,
			"type":"VEC2"
		},
		{
			"bufferView":3,
			"componentType":5123,
			"count":6,
			"type":"SCALAR"
		},
		{
			"bufferView":4,
			"componentType":5126,
			"count":128,
			"max":[
				0.4258438050746918,
				1,
				0.4258438050746918
			],
			"min":[
				-0.4258438050746918,
				-1,
				-0.4258438050746918
			],
			"type":"VEC3"
		},
		{
			"bufferView":5,
			"componentType":5126,
			"count":128,
			"type":"VEC3"
		},
		{
			"bufferView":6,
			"componentType":5126,
			"count":128,
			"type":"VEC2"
		},
		{
			"bufferView":7,
			"componentType":5123,
			"count":186,
			"type":"SCALAR"
		},
		{
			"bufferView":8,
			"componentType":5126,
			"count":128,
			"max":[
				0.4258438050746918,
				1,
				0.4258438050746918
			],
			"min":[
				-0.4258438050746918,
				-1,
				-0.4258438050746918
			],
			"type":"VEC3"
		},
		{
			"bufferView":9,
			"componentType":5126,
			"count":128,
			"type":"VEC3"
		},
		{
			"bufferView":10,
			"componentType":5126,
			"count":128,
			"type":"VEC2"
		},
		{
			"bufferView":11,
			"componentType":5126,
			"count":128,
			"max":[
				0.4258438050746918,
				1,
				0.4258438050746918
			],
			"min":[
				-0.4258438050746918,
				-1,
				-0.4258438050746918
			],
			"type":"VEC3"
		},
		{
			"bufferView":12,
			"componentType":5126,
			"count":128,
			"type":"VEC3"
		},
		{
			"bufferView":13,
			"componentType":5126,
			"count":128,
			"type":"VEC2"
		},
		{
			"bufferView":14,
			"componentType":5126,
			"count":128,
			"max":[
				0.4258438050746918,
				1,
				0.4258438050746918
			],
			"min":[
				-0.4258438050746918,
				-1,
				-0.4258438050746918
			],
			"type":"VEC3"
		},
		{
			"bufferView":15,
			"componentType":5126,
			"count":128,
			"type":"VEC3"
		},
		{
			"bufferView":16,
			"componentType":5126,
			"count":128,
			"type":"VEC2"
		},
		{
			"bufferView":17,
			"componentType":5126,
			"count":128,
			"max":[
				0.4258438050746918,
				1,
				0.4258438050746918
			],
			"min":[
				-0.4258438050746918,
				-1,
				-0.4258438050746918
			],
			"type":"VEC3"
		},
		{
			"bufferView":18,
			"componentType":5126,
			"count":128,
			"type":"VEC3"
		},
		{
			"bufferView":19,
			"componentType":5126,
			"count":128,
			"type":"VEC2"
		},
		{
			"bufferView":20,
			"componentType":5126,
			"count":128,
			"max":[
				0.4258438050746918,
				1,
				0.4258438050746918
			],
			"min":[
				-0.4258438050746918,
				-1,
				-0.4258438050746918
			],
			"type":"VEC3"
		},
		{
			"bufferView":21,
			"componentType":5126,
			"count":128,
			"type":"VEC3"
		},
		{
			"bufferView":22,
			"componentType":5126,
			"count":128,
			"type":"VEC2"
		},
		{
			"bufferView":23,
			"componentType":5126,
			"count":128,
			"max":[
				0.4258438050746918,
				1,
				0.4258438050746918
			],
			"min":[
				-0.4258438050746918,
				-1,
				-0.4258438050746918
			],
			"type":"VEC3"
		},
		{
			"bufferView":24,
			"componentType":5126,
			"count":128,
			"type":"VEC3"
		},
		{
			"bufferView":25,
			"componentType":5126,
			"count":128,
			"type":"VEC2"
		},
		{
			"bufferView":26,
			"componentType":5126,
			"count":128,
			"max":[
				0.4258438050746918,
				1,
				0.4258438050746918
			],
			"min":[
				-0.4258438050746918,
				-1,
				-0.4258438050746918
			],
			"type":"VEC3"
		},
		{
			"bufferView":27,
			"componentType":5126,
			"count":128,
			"type":"VEC3"
		},
		{
			"bufferView":28,
			"componentType":5126,
			"count":128,
			"type":"VEC2"
		},
		{
			"bufferView":29,
			"componentType":5126,
			"count":128,
			"max":[
				0.4258438050746918,
				1,
				0.4258438050746918
			],
			"min":[
				-0.4258438050746918,
				-1,
				-0.4258438050746918
			],
			"type":"VEC3"
		},
		{
			"bufferView":30,
			"componentType":5126,
			"count":128,
			"type":"VEC3"
		},
		{
			"bufferView":31,
			"componentType":5126,
			"count":128,
			"type":"VEC2"
		},
		{
			"bufferView":32,
			"componentType":5126,
			"count":40,
			"max":[
				1.6666666666666667
			],
			"min":[
				0.041666666666666664
			],
			"type":"SCALAR"
		},
		{
			"bufferView":33,
			"componentType":5126,
			"count":40,
			"type":"VEC3"
		}
	],
	"bufferViews":[
		{
			"buffer":0,
			"byteLength":48,
			"byteOffset":0,
			"target":34962
		},
		{
			"buffer":0,
			"byteLength":48,
			"byteOffset":48,
			"target":34962
		},
		{
			"buffer":0,
			"byteLength":32,
			"byteOffset":96,
			"target":34962
		},
		{
			"buffer":0,
			"byteLength":12,
			"byteOffset":128,
			"target":34963
		},
		{
			"buffer":0,
			"byteLength":1536,
			"byteOffset":140,
			"target":34962
		},
		{
			"buffer":0,
			"byteLength":1536,
			"byteOffset":1676,
			"target":34962
		},
		{
			"buffer":0,
			"byteLength":1024,
			"byteOffset":3212,
			"target":34962
		},
		{
			"buffer":0,
			"byteLength":372,
			"byteOffset":4236,
			"target":34963
		},
		{
			"buffer":0,
			"byteLength":1536,
			"byteOffset":4608,
			"target":34962
		},
		{
			"buffer":0,
			"byteLength":1536,
			"byteOffset":6144,
			"target":34962
		},
		{
			"buffer":0,
			"byteLength":1024,
			"byteOffset":7680,
			"target":34962
		},
		{
			"buffer":0,
			"byteLength":1536,
			"byteOffset":8704,
			"target":34962
		},
		{
			"buffer":0,
			"byteLength":1536,
			"byteOffset":10240,
			"target":34962
		},
		{
			"buffer":0,
			"byteLength":1024,
			"byteOffset":11776,
			"target":34962
		},
		{
			"buffer":0,
			"byteLength":1536,
			"byteOffset":12800,
			"target":34962
		},
		{
			"buffer":0,
			"byteLength":1536,
			"byteOffset":14336,
			"target":34962
		},
		{
			"buffer":0,
			"byteLength":1024,
			"byteOffset":15872,
			"target":34962
		},
		{
			"buffer":0,
			"byteLength":1536,
			"byteOffset":16896,
			"target":34962
		},
		{
			"buffer":0,
			"byteLength":1536,
			"byteOffset":18432,
			"target":34962
		},
		{
			"buffer":0,
			"byteLength":1024,
			"byteOffset":19968,
			"target":34962
		},
		{
			"buffer":0,
			"byteLength":1536,
			"byteOffset":20992,
			"target":34962
		},
		{
			"buffer":0,
			"byteLength":1536,
			"byteOffset":22528,
			"target":34962
		},
		{
			"buffer":0,
			"byteLength":1024,
			"byteOffset":24064,
			"target":34962
		},
		{
			"buffer":0,
			"byteLength":1536,
			"byteOffset":25088,
			"target":34962
		},
		{
			"buffer":0,
			"byteLength":1536,
			"byteOffset":26624,
			"target":34962
		},
		{
			"buffer":0,
			"byteLength":1024,
			"byteOffset":28160,
			"target":34962
		},
		{
			"buffer":0,
			"byteLength":1536,
			"byteOffset":29184,
			"target":34962
		},
		{
			"buffer":0,
			"byteLength":1536,
			"byteOffset":30720,
			"target":34962
		},
		{
			"buffer":0,
			"byteLength":1024,
			"byteOffset":32256,
			"target":34962
		},
		{
			"buffer":0,
			"byteLength":1536,
			"byteOffset":33280,
			"target":34962
		},
		{
			"buffer":0,
			"byteLength":1536,
			"byteOffset":34816,
			"target":34962
		},
		{
			"buffer":0,
			"byteLength":1024,
			"byteOffset":36352,
			"target":34962
		},
		{
			"buffer":0,
			"byteLength":160,
			"byteOffset":37376
		},
		{
			"buffer":0,
			"byteLength":480,
			"byteOffset":37536
		}
	],
	"buffers":[
		{
			"byteLength":38016,
			"uri":"Spike1.bin"
		}
	]
}
